# xmcd CD database file
#
# Track frame offsets:
#	150
#	27331
#	51572
#	72033
#	83305
#	120609
#	132612
#	154913
#	178371
#	200457
#	230387
#	241856
#	266950
#	285197
#	306041
#
# Disc length: 4445 seconds
#
# Revision: 0
# Processed by: cddbd v1.4PL0 Copyright (c) Steve Scherf et al.
# Submitted via: CDex 1.50beta10
#
DISCID=d2115b0f
DTITLE=SINA VODJANI - ИСЦЕЛЕНИЕ СЕРДЦА
DYEAR=1900
DGENRE=New Age
TTITLE0=Истинный Лама, прошу тебя
TTITLE1=Хвала Таре
TTITLE2=Мантра Трех Богов Долгой жизни
TTITLE3=Молитва для чайной церемонии
TTITLE4=Сутры для сердца
TTITLE5=Совершая жертвоприношение
TTITLE6=Мантра для призыва Падмасамбхавы
TTITLE7=Просьба к Цонгкале
TTITLE8=Благословение земли
TTITLE9=Молитва для достижения Ламрим
TTITLE10=Убежище среди Трех Камней
TTITLE11=Молитва об удачном завершении пути
TTITLE12=Посвящение
TTITLE13=Долгие лета святому Далай Ламе
TTITLE14=Молитва к Авалокитешвара
EXTD=
EXTT0=
EXTT1=
EXTT2=
EXTT3=
EXTT4=
EXTT5=
EXTT6=
EXTT7=
EXTT8=
EXTT9=
EXTT10=
EXTT11=
EXTT12=
EXTT13=
EXTT14=
PLAYORDER=
